<svg width="1439" height="383" viewBox="0 0 1439 383" fill="none" xmlns="http://www.w3.org/2000/svg">
<g clip-path="url(#clip0)">
<path d="M1140.02 261.168L1317.87 184.528L1079.55 143.714L1140.02 261.168Z" fill="#EB5898"/>
<path d="M926.588 278.855L1079.55 143.714L1140.02 261.168L926.588 278.855Z" fill="#F6569E"/>
<path d="M731.941 172.911L926.588 137.023V278.855L731.941 172.911Z" fill="#FC6FA5"/>
<path d="M1079.55 143.714L926.588 137.023V278.855L1079.55 143.714Z" fill="#F86DA6"/>
<path d="M441.5 241.271L449.819 120.6L662.176 158.313L441.5 241.271Z" fill="#FC8DB0"/>
<path d="M645.461 310.542L731.941 172.911L662.176 158.313L645.461 310.542Z" fill="#FC70A4"/>
<path d="M441.5 241.271L662.176 158.313L645.461 310.542L441.5 241.271Z" fill="#FD74A7"/>
<path d="M826.473 363.601L731.941 172.911L645.461 310.542L826.473 363.601Z" fill="#FD5F9C"/>
<path d="M926.588 278.855L826.473 363.601L731.941 172.911L926.588 278.855Z" fill="#FD5A9B"/>
<path d="M901.058 368.759L926.588 278.854L826.473 363.601L901.058 368.759Z" fill="#FB4692"/>
<path d="M1154.07 363.601L1140.02 261.168L926.588 278.854L901.058 368.759L1154.07 363.601Z" fill="#F73E91"/>
<path d="M1317.87 393.078L1140.02 261.168L1154.07 363.601L1317.87 393.078Z" fill="#EB3087"/>
<path d="M1317.87 184.528V393.078L1140.02 261.168L1317.87 184.528Z" fill="#E23D89"/>
<path d="M1432.05 403.395L1317.87 393.078V184.528L1432.05 403.395Z" fill="#D5327D"/>
<path d="M1560.56 203.198L1432.05 403.395L1317.87 184.528L1560.56 203.198Z" fill="#CF3E7F"/>
<path d="M1645.47 267.064L1432.05 403.395L1560.56 203.198L1645.47 267.064Z" fill="#C33977"/>
<path d="M1154.07 363.601L1323.61 544.147L1317.87 393.078L1154.07 363.601Z" fill="#E21F85"/>
<path d="M963.021 501.405L1099.86 552.253L1154.07 363.601L963.021 501.405Z" fill="#F62195"/>
<path d="M1323.61 544.147L1099.86 552.253L1154.07 363.601L1323.61 544.147Z" fill="#D91E89"/>
<path d="M963.021 501.405L901.058 368.759L1154.07 363.601L963.021 501.405Z" fill="#F92E92"/>
<path d="M769.387 518.355L901.058 368.759L963.021 501.405L769.387 518.355Z" fill="#FC3499"/>
<path d="M645.461 310.542L605.873 518.355H769.387L645.461 310.542Z" fill="#FD459D"/>
<path d="M826.473 363.601L769.387 518.355L901.058 368.759L826.473 363.601Z" fill="#FC3E92"/>
<path d="M645.461 310.542L826.473 363.601L769.387 518.355L645.461 310.542Z" fill="#FD4794"/>
<path d="M605.873 518.355L456.99 382.761L645.461 310.542L605.873 518.355Z" fill="#FE549D"/>
<path d="M441.5 529.409L456.99 382.761L605.873 518.355L441.5 529.409Z" fill="#FD51A7"/>
<path d="M295.486 469.718L456.99 382.761L441.5 529.409L295.486 469.718Z" fill="#FD5EAB"/>
<path d="M275.405 345.915L456.99 382.761L295.486 469.718L275.405 345.915Z" fill="#FD6CA7"/>
<path d="M441.5 241.271L456.99 382.761L645.461 310.542L441.5 241.271Z" fill="#FD6CA3"/>
<path d="M275.405 345.915L456.99 382.761L441.5 241.271L275.405 345.915Z" fill="#FC76A7"/>
<path d="M267.659 197.056L441.5 241.271L275.405 345.914L267.659 197.056Z" fill="#FD89AE"/>
<path d="M275.405 345.914L49.3553 235.376L267.659 197.056L275.405 345.914Z" fill="#FD95B6"/>
<path d="M49.3553 235.376L0.013916 290.645V221.374L49.3553 235.376Z" fill="#FDB3CB"/>
<path d="M98.695 403.763L49.3553 235.376L275.405 345.915L98.695 403.763Z" fill="#FD8FB6"/>
<path d="M0.013916 384.971V290.645L49.3553 235.376L98.695 403.763L0.013916 384.971Z" fill="#FF99BE"/>
<path d="M295.486 469.718L98.5426 403.444L275.405 345.915L295.486 469.718Z" fill="#FE76AE"/>
<path d="M1696.54 345.915L1619.73 511.351L1432.05 403.395L1696.54 345.915Z" fill="#BE1E70"/>
<path d="M1645.47 267.064L1696.54 345.915L1432.05 403.395L1645.47 267.064Z" fill="#BD2C6F"/>
<path d="M450 120.5L441.5 241.5L267.5 197L450 120.5Z" fill="#FD9AB8"/>
</g>
<defs>
<clipPath id="clip0">
<rect width="1444" height="1206" fill="white" transform="translate(-5)"/>
</clipPath>
</defs>
</svg>
