<svg width="1440" height="676" viewBox="0 0 1440 676" fill="none" xmlns="http://www.w3.org/2000/svg">
<path d="M1277.33 68.3752L1378.75 6.58017L1346.99 120.596L1277.33 68.3752Z" fill="#B8517C"/>
<path d="M1443.01 123.413V30.033L1378.75 6.58017L1346.99 120.596L1443.01 123.413Z" fill="#AC4B74"/>
<path d="M932.299 115.766L1078.22 52.9757L882.688 19.5372L932.299 115.766Z" fill="#EB5898"/>
<path d="M757.198 130.256L882.688 19.5372L932.299 115.766L757.198 130.256Z" fill="#F6569E"/>
<path d="M597.504 43.4579L757.198 14.0554V130.256L597.504 43.4579Z" fill="#FC6FA5"/>
<path d="M882.688 19.5372L757.198 14.0554V130.256L882.688 19.5372Z" fill="#F86DA6"/>
<path d="M359.219 99.4648L366.044 0.600006L540.267 31.4975L359.219 99.4648Z" fill="#FC8DB0"/>
<path d="M526.554 156.218L597.504 43.4579L540.267 31.4975L526.554 156.218Z" fill="#FC70A4"/>
<path d="M359.219 99.4648L540.267 31.4975L526.554 156.218L359.219 99.4648Z" fill="#FD74A7"/>
<path d="M675.061 199.688L597.504 43.4579L526.554 156.218L675.061 199.688Z" fill="#FD5F9C"/>
<path d="M757.198 130.256L675.061 199.688L597.504 43.4579L757.198 130.256Z" fill="#FD5A9B"/>
<path d="M736.252 203.914L757.198 130.256L675.061 199.688L736.252 203.914Z" fill="#FB4692"/>
<path d="M943.832 199.688L932.299 115.766L757.198 130.256L736.252 203.914L943.832 199.688Z" fill="#F73E91"/>
<path d="M1078.22 223.838L932.299 115.766L943.832 199.688L1078.22 223.838Z" fill="#EB3087"/>
<path d="M1078.22 52.9757V223.838L932.299 115.766L1078.22 52.9757Z" fill="#E23D89"/>
<path d="M1171.89 232.291L1078.22 223.838V52.9757L1171.89 232.291Z" fill="#D5327D"/>
<path d="M1277.33 68.2712L1171.89 232.291L1078.22 52.9757L1277.33 68.2712Z" fill="#CF3E7F"/>
<path d="M1346.99 120.596L1171.89 232.291L1277.33 68.2713L1346.99 120.596Z" fill="#C33977"/>
<path d="M1082.92 347.608L1078.22 223.838L1171.89 232.291L1082.92 347.608Z" fill="#D61C81"/>
<path d="M943.832 199.688L1082.92 347.608L1078.22 223.838L943.832 199.688Z" fill="#E21F85"/>
<path d="M787.088 312.59L899.35 354.249L943.832 199.688L787.088 312.59Z" fill="#F62195"/>
<path d="M1082.92 347.608L899.35 354.249L943.832 199.688L1082.92 347.608Z" fill="#D91E89"/>
<path d="M787.088 312.59L736.252 203.914L943.832 199.688L787.088 312.59Z" fill="#F92E92"/>
<path d="M628.225 326.477L736.252 203.914L787.088 312.59L628.225 326.477Z" fill="#FC3499"/>
<path d="M526.554 156.218L494.075 326.477H628.225L526.554 156.218Z" fill="#FD459D"/>
<path d="M675.061 199.688L628.225 326.477L736.252 203.914L675.061 199.688Z" fill="#FC3E92"/>
<path d="M526.554 156.218L675.061 199.688L628.225 326.477L526.554 156.218Z" fill="#FD4794"/>
<path d="M494.075 326.477L371.928 215.386L526.554 156.218L494.075 326.477Z" fill="#FE549D"/>
<path d="M359.219 335.533L371.928 215.386L494.075 326.477L359.219 335.533Z" fill="#FD51A7"/>
<path d="M239.425 286.629L371.928 215.386L359.219 335.533L239.425 286.629Z" fill="#FD5EAB"/>
<path d="M222.95 185.198L371.928 215.386L239.425 286.629L222.95 185.198Z" fill="#FD6CA7"/>
<path d="M359.219 99.4648L371.928 215.386L526.554 156.218L359.219 99.4648Z" fill="#FD6CA3"/>
<path d="M222.95 185.198L371.928 215.386L359.219 99.4648L222.95 185.198Z" fill="#FC76A7"/>
<path d="M216.596 63.2396L359.219 99.4648L222.95 185.198L216.596 63.2396Z" fill="#FD89AE"/>
<path d="M222.95 185.198L37.4935 94.6348L216.596 63.2396L222.95 185.198Z" fill="#FD95B6"/>
<path d="M37.4935 94.6348L-2.98749 139.916V83.1635L37.4935 94.6348Z" fill="#FDB3CB"/>
<path d="M77.973 232.593L37.4935 94.6348L222.95 185.198L77.973 232.593Z" fill="#FD8FB6"/>
<path d="M-2.98749 217.197V139.916L37.4935 94.6348L77.973 232.593L-2.98749 217.197Z" fill="#FF99BE"/>
<path d="M-2.98749 278.78L77.973 232.593L-2.98749 217.197V278.78Z" fill="#FF8DC2"/>
<path d="M239.425 286.629L77.8479 232.331L222.95 185.198L239.425 286.629Z" fill="#FE76AE"/>
<path d="M359.219 335.533L236.718 476.812L239.425 286.629L359.219 335.533Z" fill="#F05CB0"/>
<path d="M98.6844 354.551L239.425 286.629L236.718 476.812L98.6844 354.551Z" fill="#F066B5"/>
<path d="M77.8479 232.331L239.425 286.629L98.6844 354.551L77.8479 232.331Z" fill="#FD71B8"/>
<path d="M-2.98749 333.42L98.6844 354.551L77.8479 232.331L-2.98749 278.78V333.42Z" fill="#FF7CC2"/>
<path d="M63.3817 431.53L98.6844 354.551L-2.98749 333.42V382.475L63.3817 431.53Z" fill="#EF7BC1"/>
<path d="M-2.98749 447.529L63.3817 431.53L-2.98749 382.475V447.529Z" fill="#EF7BC1"/>
<path d="M236.718 476.812L63.3817 431.53L98.6844 354.551L236.718 476.812Z" fill="#E06CB4"/>
<path d="M155.875 533.263L236.718 476.811L63.3817 431.53L155.875 533.263Z" fill="#D06BAF"/>
<path d="M30.1971 521.489L63.3817 431.53L155.875 533.263L30.1971 521.489Z" fill="#CB75B4"/>
<path d="M-2.98749 506.999L30.1971 521.489L63.3817 431.53L-2.98749 447.529V506.999Z" fill="#D37DBC"/>
<path d="M-2.98749 559.526L30.1971 521.489L-2.98749 506.999V559.526Z" fill="#B87EB9"/>
<path d="M69.5 662.5L155.875 533.263L181 641L69.5 662.5Z" fill="#A76CA3"/>
<path d="M-2.98749 638.618L87.7405 635.599L69.5 662.5L-2.98749 655.523V638.618Z" fill="#9C719E"/>
<path d="M30.1971 521.49L87.7405 635.599L155.875 533.263L30.1971 521.49Z" fill="#B973AF"/>
<path d="M-2.98749 559.526L30.1971 521.489L87.7405 635.599L-2.98749 638.618V559.526Z" fill="#AC75AF"/>
<path d="M155.875 533.263L236.718 476.812L397.346 600.883L155.875 533.263Z" fill="#C25EA6"/>
<path d="M1082.92 347.608L1114.64 440.474L1252.38 342.047L1082.92 347.608Z" fill="#C31381"/>
<path d="M1171.89 232.291L1252.38 342.048L1082.92 347.608L1171.89 232.291Z" fill="#D01380"/>
<path d="M1388.88 185.198L1325.87 320.739L1171.89 232.291L1388.88 185.198Z" fill="#BE1E70"/>
<path d="M1346.99 120.596L1388.88 185.198L1171.89 232.291L1346.99 120.596Z" fill="#BD2C6F"/>
<path d="M1443.01 159.84L1388.88 185.198L1346.99 120.596H1443.01V159.84Z" fill="#AC376D"/>
<path d="M1443.01 223.838L1388.88 185.198L1443.01 159.84V223.838Z" fill="#A22C65"/>
<path d="M1443.01 303.488L1325.87 320.739L1388.88 185.198L1443.01 303.488Z" fill="#AD1B6D"/>
<path d="M1443.01 223.838L1388.88 185.198L1443.01 303.488V223.838Z" fill="#A51F66"/>
<path d="M1443.01 425.255L1325.87 320.739L1443.01 303.488V425.255Z" fill="#9F1270"/>
<path d="M1252.38 342.047L1325.87 320.739L1171.89 232.291L1252.38 342.047Z" fill="#C5157A"/>
<path d="M1325.87 482.396L1252.38 342.047L1325.87 320.739V482.396Z" fill="#AB1378"/>
<path d="M1443.01 459.754L1325.87 482.396V320.739L1443.01 425.255V459.754Z" fill="#97126F"/>
<path d="M1248.88 461.784L1325.87 482.396L1252.38 342.047L1248.88 461.784Z" fill="#A21275"/>
<path d="M1114.64 440.474L1252.38 342.047L1248.88 461.784L1114.64 440.474Z" fill="#AE1178"/>
<path d="M1122.23 559.526L1248.88 461.784L1114.64 440.474L1122.23 559.526Z" fill="#9F1477"/>
<path d="M1183.51 586.593L1122.23 559.526L1248.88 461.784L1183.51 586.593Z" fill="#901475"/>
<path d="M1312.81 600.883L1325.87 482.396L1248.88 461.784L1312.81 600.883Z" fill="#87126D"/>
<path d="M1183.51 586.593L1248.88 461.784L1312.81 600.883L1183.51 586.593Z" fill="#84126C"/>
<path d="M1443.01 524.188L1325.87 482.396L1443.01 459.754V524.188Z" fill="#791264"/>
<path d="M1312.81 600.883L1443.01 565.285V524.188L1325.87 482.396L1312.81 600.883Z" fill="#741267"/>
<path d="M1158 672L1183.51 586.594L1312.82 600.883L1158 672Z" fill="#771268"/>
<path d="M1122.23 559.526L1183.51 586.594L1158 672L1122.23 559.526Z" fill="#82146F"/>
<path d="M920.033 538.847L1114.64 440.474L1122.23 559.526L920.033 538.847Z" fill="#AA147F"/>
<path d="M927.153 401.568L1114.64 440.474L1082.92 347.608L927.153 401.568Z" fill="#CC1589"/>
<path d="M899.35 354.249L927.153 401.568L1082.92 347.608L899.35 354.249Z" fill="#DD168D"/>
<path d="M798.62 421.195L787.088 312.59L899.35 354.249L798.62 421.195Z" fill="#EA2094"/>
<path d="M927.153 401.568L899.35 354.249L798.62 421.195L927.153 401.568Z" fill="#DF1E95"/>
<path d="M920.033 538.847L927.153 401.568L1114.64 440.474L920.033 538.847Z" fill="#C21588"/>
<path d="M798.62 421.195L927.153 401.568L920.034 538.847L798.62 421.195Z" fill="#CE1D91"/>
<path d="M623.372 412.222L787.088 312.59L798.62 421.195L623.372 412.222Z" fill="#EA2A98"/>
<path d="M628.225 326.477L623.372 412.222L787.088 312.59L628.225 326.477Z" fill="#F4309D"/>
<path d="M494.075 326.477L526.554 405.974L628.225 326.477H494.075Z" fill="#F33DA2"/>
<path d="M359.219 335.533L397.346 425.255L494.075 326.477L359.219 335.533Z" fill="#F14AA4"/>
<path d="M236.718 476.812L397.346 425.255L359.219 335.533L236.718 476.812Z" fill="#E355A9"/>
<path d="M397.346 600.883V425.255L236.718 476.812L397.346 600.883Z" fill="#C954A2"/>
<path d="M278 634L155.875 533.263L397.346 600.883L278 634Z" fill="#AD589B"/>
<path d="M181 641L155.875 533.263L278 634L181 641Z" fill="#A16092"/>
<path d="M277.5 634L397.346 600.883L462 675.5L277.5 634Z" fill="#A34989"/>
<path d="M668 660L526 628L462 675.5L668 660Z" fill="#9F4082"/>
<path d="M756 642L798.62 521.49L668 660L756 642Z" fill="#A82886"/>
<path d="M526.554 405.974L397.346 425.254L481.836 583.476L526.554 405.974Z" fill="#D2469D"/>
<path d="M623.372 412.222L526.554 405.974L628.225 326.477L623.372 412.222Z" fill="#EC399D"/>
<path d="M494.075 326.477L526.554 405.974L397.346 425.255L494.075 326.477Z" fill="#EB46A5"/>
<path d="M481.836 583.476L397.346 600.883V425.255L481.836 583.476Z" fill="#C0499B"/>
<path d="M526.554 628.203L481.836 583.476L397.346 600.883L526.554 628.203Z" fill="#C14FA4"/>
<path d="M526.554 628.203L463 657L397.346 600.883L526.554 628.203Z" fill="#C14FA4"/>
<path d="M611.28 541.213L668 660L526.554 628.203L611.28 541.213Z" fill="#AD378C"/>
<path d="M481.836 583.476L526.554 628.203L611.28 541.213L481.836 583.476Z" fill="#B33D92"/>
<path d="M526.554 405.974L611.28 541.213L481.836 583.476L526.554 405.974Z" fill="#C63E96"/>
<path d="M623.372 412.222L611.28 541.213L526.554 405.974L623.372 412.222Z" fill="#D63998"/>
<path d="M798.62 421.195V521.489L623.372 412.222L798.62 421.195Z" fill="#D52A92"/>
<path d="M611.28 541.213L798.62 521.489L623.372 412.222L611.28 541.213Z" fill="#CE3194"/>
<path d="M668 660L798.62 521.49L611.28 541.213L668 660Z" fill="#B72D8D"/>
<path d="M920.033 538.847L798.62 521.489V421.195L920.033 538.847Z" fill="#C3208D"/>
<path d="M1312.81 600.883L1443.01 635.599V676L1319 655.523L1312.81 600.883Z" fill="#510952"/>
<path d="M1443.01 565.285V635.599L1312.81 600.883L1443.01 565.285Z" fill="#540759"/>
<path d="M1319.45 655.523L1158 672L1312.82 600.883L1319.45 655.523Z" fill="#631259"/>
<path d="M1076 663L1122.23 559.526L1158 672L1076 663Z" fill="#7D1369"/>
<path d="M935.359 655.523L920.033 538.847L1076 663L935.359 655.523Z" fill="#8E1572"/>
<path d="M1122.23 559.526L1076 663L920.033 538.847L1122.23 559.526Z" fill="#921478"/>
<path d="M756 642L935.359 655.523L920.033 538.847L756 642Z" fill="#991C7A"/>
<path d="M798.62 521.49L920.033 538.847L756 642L798.62 521.49Z" fill="#AE2086"/>
<path d="M366.031 0.600006L359.536 99.8931L216.913 63.6679L366.031 0.600006Z" fill="#FD9AB8"/>
<path d="M526 628L462 675.5L397.5 601L526 628Z" fill="#C74EA8"/>
</svg>
