<svg width="1440" height="938" viewBox="0 0 1440 938" fill="none" xmlns="http://www.w3.org/2000/svg">
<path d="M1218.37 746.057L1419.23 810.861L1156.21 861.832L1218.37 746.057Z" fill="#EB5898"/>
<path d="M980.516 739.622L1156.21 861.832L1218.37 746.057L980.516 739.622Z" fill="#F6569E"/>
<path d="M768.807 850.975L986.575 875.816L980.516 739.622L768.807 850.975Z" fill="#FC6FA5"/>
<path d="M1156.21 861.832L986.575 875.816L980.516 739.622L1156.21 861.832Z" fill="#F86DA6"/>
<path d="M443.233 799.686L457.63 915.15L691.928 868.441L443.233 799.686Z" fill="#FC8DB0"/>
<path d="M666.856 723.088L768.807 850.975L691.928 868.441L666.856 723.088Z" fill="#FC70A4"/>
<path d="M443.233 799.686L691.928 868.441L666.856 723.088L443.233 799.686Z" fill="#FD74A7"/>
<path d="M865.677 663.192L768.807 850.975L666.856 723.088L865.677 663.192Z" fill="#FD5F9C"/>
<path d="M980.516 739.622L865.677 663.192L768.807 850.975L980.516 739.622Z" fill="#FD5A9B"/>
<path d="M948.313 654.552L980.516 739.622L865.677 663.192L948.313 654.552Z" fill="#FB4692"/>
<path d="M1229.61 647.001L1218.37 746.057L980.516 739.622L948.313 654.552L1229.61 647.001Z" fill="#F73E91"/>
<path d="M1410.32 610.6L1218.37 746.057L1229.61 647.001L1410.32 610.6Z" fill="#EB3087"/>
<path d="M1419.23 810.861L1410.32 610.6L1218.37 746.057L1419.23 810.861Z" fill="#E23D89"/>
<path d="M1536.71 595.05L1410.32 610.6L1419.23 810.861L1536.71 595.05Z" fill="#D5327D"/>
<path d="M1688.03 780.939L1536.71 595.05L1419.23 810.861L1688.03 780.939Z" fill="#CF3E7F"/>
<path d="M1410.24 465.251L1410.32 610.6L1536.71 595.05L1410.24 465.251Z" fill="#D61C81"/>
<path d="M1229.61 647.001L1410.24 465.251L1410.32 610.6L1229.61 647.001Z" fill="#E21F85"/>
<path d="M1011.48 524.116L1161.32 468.526L1229.61 647.001L1011.48 524.116Z" fill="#F62195"/>
<path d="M1410.24 465.251L1161.32 468.526L1229.61 647.001L1410.24 465.251Z" fill="#D91E89"/>
<path d="M1011.48 524.116L948.313 654.552L1229.61 647.001L1011.48 524.116Z" fill="#F92E92"/>
<path d="M795.648 517.41L948.313 654.552L1011.48 524.116L795.648 517.41Z" fill="#FC3499"/>
<path d="M666.856 723.088L614 525.491L795.648 517.41L666.856 723.088Z" fill="#FD459D"/>
<path d="M865.677 663.192L795.648 517.41L948.313 654.552L865.677 663.192Z" fill="#FC3E92"/>
<path d="M666.856 723.088L865.677 663.192L795.648 517.41L666.856 723.088Z" fill="#FD4794"/>
<path d="M614 525.491L454.398 663.054L666.856 723.088L614 525.491Z" fill="#FE549D"/>
<path d="M430.924 523L454.398 663.054L614 525.491L430.924 523Z" fill="#FD51A7"/>
<path d="M271.266 587.535L454.398 663.054L430.924 523L271.266 587.535Z" fill="#FD5EAB"/>
<path d="M254.247 707.411L454.398 663.054L271.266 587.535L254.247 707.411Z" fill="#FD6CA7"/>
<path d="M443.233 799.686L454.398 663.054L666.856 723.088L443.233 799.686Z" fill="#FD6CA3"/>
<path d="M254.247 707.41L454.398 663.054L443.233 799.686L254.247 707.41Z" fill="#FC76A7"/>
<path d="M252.002 850.736L443.233 799.686L254.247 707.411L252.002 850.736Z" fill="#FD89AE"/>
<path d="M254.247 707.411L7.84945 824.728L252.002 850.736L254.247 707.411Z" fill="#FD95B6"/>
<path d="M7.84946 824.728L-49.3254 774.094L-46.3661 840.612L7.84946 824.728Z" fill="#FDB3CB"/>
<path d="M55.4676 660.595L7.84943 824.728L254.247 707.411L55.4676 660.595Z" fill="#FD8FB6"/>
<path d="M-53.3551 683.517L-49.3254 774.094L7.84941 824.728L55.4676 660.595L-53.3551 683.517Z" fill="#FF99BE"/>
<path d="M-56.5663 611.338L55.4676 660.595L-53.3551 683.517L-56.5663 611.338Z" fill="#FF8DC2"/>
<path d="M271.266 587.535L55.3119 660.909L254.247 707.411L271.266 587.535Z" fill="#FE76AE"/>
<path d="M430.924 523L257.684 364.793L271.266 587.535L430.924 523Z" fill="#F05CB0"/>
<path d="M77.1528 516.405L271.266 587.535L257.684 364.793L77.1528 516.405Z" fill="#F066B5"/>
<path d="M55.3119 660.909L271.266 587.535L77.1528 516.405L55.3119 660.909Z" fill="#FD71B8"/>
<path d="M-59.4154 547.297L77.1528 516.405L55.3119 660.909L-56.5663 611.338L-59.4154 547.297Z" fill="#FF7CC2"/>
<path d="M25.3367 428.308L77.1528 516.405L-59.4154 547.297L-61.9733 489.801L25.3367 428.308Z" fill="#EF7BC1"/>
<path d="M-65.3654 413.554L25.3368 428.308L-61.9733 489.801L-65.3654 413.554Z" fill="#EF7BC1"/>
<path d="M257.684 364.793L25.3368 428.308L77.1528 516.405L257.684 364.793Z" fill="#E06CB4"/>
<path d="M145.274 303.499L257.684 364.793L25.3368 428.308L145.274 303.499Z" fill="#D06BAF"/>
<path d="M-24.288 324.869L25.3367 428.308L145.274 303.499L-24.288 324.869Z" fill="#CB75B4"/>
<path d="M-68.4664 343.851L-24.288 324.869L25.3367 428.308L-65.3655 413.554L-68.4664 343.851Z" fill="#D37DBC"/>
<path d="M47.6793 187.659L145.274 303.499L197.855 113.568L65.2832 163.478L47.6793 187.659Z" fill="#A76CA3"/>
<path d="M-75.3295 189.587L47.6793 187.659L65.2832 163.478L-76.211 169.773L-75.3295 189.587Z" fill="#9C719E"/>
<path d="M-24.288 324.869L47.6793 187.659L145.274 303.499L-24.288 324.869Z" fill="#B973AF"/>
<path d="M-71.2053 282.287L-24.288 324.869L47.6793 187.659L-75.3295 189.587L-71.2053 282.287Z" fill="#AC75AF"/>
<path d="M145.274 303.499L257.684 364.793L468.714 209.698L145.274 303.499Z" fill="#C25EA6"/>
<path d="M1410.24 465.251L1448.34 354.496L1639.98 461.561L1410.24 465.251Z" fill="#C31381"/>
<path d="M1536.71 595.05L1639.98 461.561L1410.24 465.251L1536.71 595.05Z" fill="#D01380"/>
<path d="M1179.7 250.92L1448.34 354.496L1452.41 214.503L1179.7 250.92Z" fill="#AA147F"/>
<path d="M1196.5 411.391L1448.34 354.496L1410.24 465.251L1196.5 411.391Z" fill="#CC1589"/>
<path d="M1161.32 468.526L1196.5 411.391L1410.24 465.251L1161.32 468.526Z" fill="#DD168D"/>
<path d="M1021.43 396.13L1011.48 524.115L1161.32 468.526L1021.43 396.13Z" fill="#EA2094"/>
<path d="M1196.5 411.391L1161.32 468.526L1021.43 396.13L1196.5 411.391Z" fill="#DF1E95"/>
<path d="M1179.7 250.921L1196.5 411.391L1448.34 354.496L1179.7 250.921Z" fill="#C21588"/>
<path d="M1021.43 396.13L1196.5 411.391L1179.7 250.92L1021.43 396.13Z" fill="#CE1D91"/>
<path d="M784.605 417.204L1011.48 524.115L1021.43 396.13L784.605 417.204Z" fill="#EA2A98"/>
<path d="M795.648 517.41L784.605 417.204L1011.48 524.115L795.648 517.41Z" fill="#F4309D"/>
<path d="M614 525.491L653.833 430.359L795.648 517.41L614 525.491Z" fill="#F33DA2"/>
<path d="M430.924 523L477.872 415.545L614 525.491L430.924 523Z" fill="#F14AA4"/>
<path d="M257.684 364.793L477.872 415.545L430.924 523L257.684 364.793Z" fill="#E355A9"/>
<path d="M468.714 209.698L477.872 415.545L257.684 364.793L468.714 209.698Z" fill="#C954A2"/>
<path d="M439.465 93.4241L351.14 67.9941L145.274 303.499L468.714 209.698L439.465 93.4241Z" fill="#AD589B"/>
<path d="M197.855 113.568L145.274 303.499L351.14 67.9941L197.855 113.568Z" fill="#A16092"/>
<path d="M439.465 93.4241L468.714 209.698L642.245 169.894L505.93 117.478L439.465 93.4241Z" fill="#A34989"/>
<path d="M822.272 92.8348L642.245 169.894L508.702 118.529L822.272 92.8348Z" fill="#9F4082"/>
<path d="M994.556 122.136L1016.2 278.579L822.272 92.8347L994.556 122.136Z" fill="#A82886"/>
<path d="M653.833 430.359L477.872 415.545L584.027 225.011L653.833 430.359Z" fill="#D2469D"/>
<path d="M784.605 417.204L653.833 430.359L795.648 517.41L784.605 417.204Z" fill="#EC399D"/>
<path d="M614 525.491L653.833 430.359L477.872 415.545L614 525.491Z" fill="#EB46A5"/>
<path d="M584.027 225.011L468.714 209.698L477.872 415.545L584.027 225.011Z" fill="#C0499B"/>
<path d="M642.245 169.894L584.027 225.011L468.714 209.698L642.245 169.894Z" fill="#AD4793"/>
<path d="M761.506 266.747L822.272 92.8347L642.245 169.894L761.506 266.747Z" fill="#AD378C"/>
<path d="M584.027 225.011L642.245 169.894L761.506 266.747L584.027 225.011Z" fill="#B33D92"/>
<path d="M653.833 430.359L761.506 266.747L584.027 225.011L653.833 430.359Z" fill="#C63E96"/>
<path d="M784.605 417.204L761.506 266.747L653.833 430.359L784.605 417.204Z" fill="#D63998"/>
<path d="M1021.43 396.13L1016.2 278.579L784.605 417.204L1021.43 396.13Z" fill="#D52A92"/>
<path d="M761.506 266.747L1016.2 278.579L784.605 417.204L761.506 266.747Z" fill="#CE3194"/>
<path d="M822.272 92.8347L1016.2 278.579L761.506 266.747L822.272 92.8347Z" fill="#B72D8D"/>
<path d="M1179.7 250.92L1016.2 278.579L1021.43 396.13L1179.7 250.92Z" fill="#C3208D"/>
<path d="M1437.13 102.446L1452.41 214.504L1514.64 98.9979L1437.13 102.446Z" fill="#7D1369"/>
<path d="M1142.08 115.572L1179.7 250.92L1383.41 89.0092L1142.08 115.572Z" fill="#8E1572"/>
<path d="M1452.41 214.503L1437.13 102.446L1383.41 89.0091L1179.7 250.92L1452.41 214.503Z" fill="#921478"/>
<path d="M993.876 122.166L1143.44 115.512L1179.7 250.92L993.876 122.166Z" fill="#991C7A"/>
<path d="M1016.2 278.579L1179.7 250.92L994.556 122.136L1016.2 278.579Z" fill="#AE2086"/>
<path d="M457.836 915.237L443.224 799.466L251.827 850.797L457.836 915.237Z" fill="#FD9AB8"/>
</svg>
